<?xml version="1.0" encoding="UTF-8" standalone="no"?>
<!-- Created with Inkscape (http://www.inkscape.org/) -->

<svg
   width="20.650782mm"
   height="21.749876mm"
   viewBox="0 0 20.650782 21.749876"
   version="1.1"
   id="svg1"
   xml:space="preserve"
   xmlns:inkscape="http://www.inkscape.org/namespaces/inkscape"
   xmlns:sodipodi="http://sodipodi.sourceforge.net/DTD/sodipodi-0.dtd"
   xmlns="http://www.w3.org/2000/svg"
   xmlns:svg="http://www.w3.org/2000/svg"><sodipodi:namedview
     id="namedview1"
     pagecolor="#ffffff"
     bordercolor="#000000"
     borderopacity="0.25"
     inkscape:showpageshadow="2"
     inkscape:pageopacity="0.0"
     inkscape:pagecheckerboard="0"
     inkscape:deskcolor="#d1d1d1"
     inkscape:document-units="mm" /><defs
     id="defs1" /><g
     inkscape:label="Capa 1"
     inkscape:groupmode="layer"
     id="layer1"
     transform="translate(-125.66465,-112.91718)"><path
       style="fill:#b3b3b3;stroke-width:1.05852"
       d="m 127.17688,134.55316 c 0.90011,-1.41922 15.3257,-8.70673 15.93966,-8.0524 0.55605,0.59261 3.31121,5.00649 3.19535,5.11907 -0.63892,0.62076 -2.94795,-0.27861 -3.70661,-1.44372 -0.96376,-1.4801 -0.76982,-1.47357 -4.75829,-0.15997 -4.94737,1.62943 -7.42287,2.70723 -10.18243,4.4333 -0.38905,0.24336 -0.60543,0.28937 -0.48768,0.10372 z m -1.51222,-6.67637 c 0,-0.31742 3.5436,-12.27804 4.05724,-13.69431 0.44049,-1.21455 1.54965,-1.57145 3.10177,-0.9981 1.14165,0.42172 5.51902,6.72069 4.84929,6.97808 -1.62091,0.62292 -2.20771,0.32359 -3.71631,-1.8958 -0.90752,-1.3351 -1.49763,-1.97754 -1.58483,-1.72537 -2.1478,6.21107 -2.05132,7.04251 0.722,6.22251 2.6436,-0.78165 8.55023,-2.11986 8.70272,-1.9717 0.054,0.0525 -0.51698,0.31169 -1.26877,0.57613 -6.21516,2.18613 -10.56159,4.07878 -13.37142,5.8226 -0.82044,0.50916 -1.49169,0.81784 -1.49169,0.68596 z"
       id="path3"
       inkscape:export-filename="logo.svg"
       inkscape:export-xdpi="96"
       inkscape:export-ydpi="96" /><text
       xml:space="preserve"
       style="font-size:4.85121px;fill:#b3b3b3;stroke-width:0.404267"
       x="19.611263"
       y="191.45621"
       id="text2-0"
       transform="matrix(1.0154297,-0.44673867,0.57107121,0.73356178,0,0)"><tspan
         sodipodi:role="line"
         id="tspan2-4"
         x="19.611263"
         y="191.45621"
         style="fill:#b3b3b3;stroke-width:0.404267">PLAN</tspan></text><path
       style="fill:#000000"
       d="m 128.38155,133.77376 c 0.83818,-1.36022 14.27132,-8.3448 14.84304,-7.71767 0.51779,0.56798 3.0834,4.79838 2.97551,4.90628 -0.59496,0.59495 -2.74513,-0.26703 -3.4516,-1.38371 -0.89745,-1.41857 -0.71686,-1.41232 -4.43093,-0.15332 -4.607,1.5617 -6.91219,2.5947 -9.48189,4.24902 -0.36229,0.23324 -0.56378,0.27734 -0.45413,0.0994 z m -1.40818,-6.39884 c 0,-0.30423 3.2998,-11.76766 3.77811,-13.12506 0.41018,-1.16406 1.44303,-1.50613 2.88837,-0.95661 1.06311,0.40419 5.13932,6.44132 4.51567,6.68801 -1.5094,0.59703 -2.05583,0.31014 -3.46064,-1.81699 -0.84508,-1.27961 -1.39459,-1.89534 -1.47579,-1.65365 -2.00004,5.95288 -1.9102,6.74976 0.67232,5.96385 2.46173,-0.74916 7.96199,-2.03174 8.10399,-1.88974 0.0503,0.0503 -0.48141,0.29873 -1.18148,0.55218 -5.78757,2.09526 -9.83497,3.90923 -12.45149,5.58056 -0.76399,0.488 -1.38906,0.78385 -1.38906,0.65745 z"
       id="path1" /><text
       xml:space="preserve"
       style="font-size:4.85121px;fill:#d40000;stroke-width:0.404267"
       x="20.078491"
       y="191.49792"
       id="text2"
       transform="matrix(1.0154297,-0.44673867,0.57107121,0.73356178,0,0)"><tspan
         sodipodi:role="line"
         id="tspan2"
         x="20.078491"
         y="191.49792"
         style="fill:#d40000;stroke-width:0.404267">PLAN</tspan></text></g></svg>
